<mxfile host="Electron" agent="Mozilla/5.0 (Macintosh; Intel Mac OS X 10_15_7) AppleWebKit/537.36 (KHTML, like Gecko) draw.io/27.0.9 Chrome/134.0.6998.205 Electron/35.4.0 Safari/537.36" version="27.0.9">
  <diagram name="Page-1" id="8q3NBdoE_RFploJ3vMIb">
    <mxGraphModel dx="1018" dy="668" grid="1" gridSize="10" guides="1" tooltips="1" connect="1" arrows="1" fold="1" page="1" pageScale="1" pageWidth="827" pageHeight="1169" math="0" shadow="0">
      <root>
        <mxCell id="0" />
        <mxCell id="1" parent="0" />
        <mxCell id="KkYqwo0GDRpc-AY5UE3U-1" value="" style="rounded=0;whiteSpace=wrap;html=1;fillColor=none;dashed=1;" parent="1" vertex="1">
          <mxGeometry x="160" y="70" width="200" height="490" as="geometry" />
        </mxCell>
        <mxCell id="KkYqwo0GDRpc-AY5UE3U-2" value="&lt;font style=&quot;font-size: 22px;&quot;&gt;Sources&lt;/font&gt;" style="rounded=0;whiteSpace=wrap;html=1;" parent="1" vertex="1">
          <mxGeometry x="170" y="40" width="180" height="60" as="geometry" />
        </mxCell>
        <mxCell id="KkYqwo0GDRpc-AY5UE3U-21" style="edgeStyle=orthogonalEdgeStyle;rounded=0;orthogonalLoop=1;jettySize=auto;html=1;" parent="1" source="KkYqwo0GDRpc-AY5UE3U-3" target="KkYqwo0GDRpc-AY5UE3U-18" edge="1">
          <mxGeometry relative="1" as="geometry">
            <Array as="points">
              <mxPoint x="320" y="208" />
              <mxPoint x="320" y="165" />
            </Array>
          </mxGeometry>
        </mxCell>
        <mxCell id="KkYqwo0GDRpc-AY5UE3U-22" style="edgeStyle=orthogonalEdgeStyle;rounded=0;orthogonalLoop=1;jettySize=auto;html=1;entryX=0;entryY=0.5;entryDx=0;entryDy=0;" parent="1" source="KkYqwo0GDRpc-AY5UE3U-3" target="KkYqwo0GDRpc-AY5UE3U-19" edge="1">
          <mxGeometry relative="1" as="geometry" />
        </mxCell>
        <mxCell id="KkYqwo0GDRpc-AY5UE3U-30" style="edgeStyle=orthogonalEdgeStyle;rounded=0;orthogonalLoop=1;jettySize=auto;html=1;" parent="1" source="KkYqwo0GDRpc-AY5UE3U-3" target="KkYqwo0GDRpc-AY5UE3U-20" edge="1">
          <mxGeometry relative="1" as="geometry">
            <Array as="points">
              <mxPoint x="320" y="208" />
              <mxPoint x="320" y="251" />
            </Array>
          </mxGeometry>
        </mxCell>
        <mxCell id="KkYqwo0GDRpc-AY5UE3U-3" value="CRM" style="image;aspect=fixed;html=1;points=[];align=center;fontSize=17;image=img/lib/azure2/general/Folder_Blank.svg;fontStyle=1" parent="1" vertex="1">
          <mxGeometry x="225.5" y="180" width="69" height="56.00000000000001" as="geometry" />
        </mxCell>
        <mxCell id="KkYqwo0GDRpc-AY5UE3U-27" style="edgeStyle=orthogonalEdgeStyle;rounded=0;orthogonalLoop=1;jettySize=auto;html=1;" parent="1" source="KkYqwo0GDRpc-AY5UE3U-5" target="KkYqwo0GDRpc-AY5UE3U-25" edge="1">
          <mxGeometry relative="1" as="geometry" />
        </mxCell>
        <mxCell id="KkYqwo0GDRpc-AY5UE3U-28" style="edgeStyle=orthogonalEdgeStyle;rounded=0;orthogonalLoop=1;jettySize=auto;html=1;" parent="1" source="KkYqwo0GDRpc-AY5UE3U-5" target="KkYqwo0GDRpc-AY5UE3U-24" edge="1">
          <mxGeometry relative="1" as="geometry">
            <Array as="points">
              <mxPoint x="330" y="380" />
              <mxPoint x="330" y="337" />
            </Array>
          </mxGeometry>
        </mxCell>
        <mxCell id="KkYqwo0GDRpc-AY5UE3U-29" style="edgeStyle=orthogonalEdgeStyle;rounded=0;orthogonalLoop=1;jettySize=auto;html=1;" parent="1" source="KkYqwo0GDRpc-AY5UE3U-5" target="KkYqwo0GDRpc-AY5UE3U-26" edge="1">
          <mxGeometry relative="1" as="geometry">
            <Array as="points">
              <mxPoint x="330" y="380" />
              <mxPoint x="330" y="423" />
            </Array>
          </mxGeometry>
        </mxCell>
        <mxCell id="KkYqwo0GDRpc-AY5UE3U-5" value="ERP" style="image;aspect=fixed;html=1;points=[];align=center;fontSize=17;image=img/lib/azure2/general/Folder_Blank.svg;fontStyle=1" parent="1" vertex="1">
          <mxGeometry x="225.5" y="352" width="69" height="56.00000000000001" as="geometry" />
        </mxCell>
        <mxCell id="KkYqwo0GDRpc-AY5UE3U-6" value="" style="rounded=0;whiteSpace=wrap;html=1;fillColor=none;dashed=1;" parent="1" vertex="1">
          <mxGeometry x="440" y="70" width="200" height="490" as="geometry" />
        </mxCell>
        <mxCell id="KkYqwo0GDRpc-AY5UE3U-7" value="&lt;font style=&quot;font-size: 22px;&quot;&gt;Bronze Layer&lt;/font&gt;" style="rounded=0;whiteSpace=wrap;html=1;fillColor=#BD7000;strokeColor=#BD7000;fontColor=#000000;" parent="1" vertex="1">
          <mxGeometry x="450" y="40" width="180" height="60" as="geometry" />
        </mxCell>
        <mxCell id="KkYqwo0GDRpc-AY5UE3U-10" value="" style="rounded=0;whiteSpace=wrap;html=1;fillColor=none;dashed=1;fontColor=#333333;strokeColor=#666666;" parent="1" vertex="1">
          <mxGeometry x="720" y="70" width="200" height="490" as="geometry" />
        </mxCell>
        <mxCell id="KkYqwo0GDRpc-AY5UE3U-11" value="&lt;font style=&quot;font-size: 22px;&quot;&gt;Silver layer&lt;/font&gt;" style="rounded=0;whiteSpace=wrap;html=1;fillColor=#f5f5f5;strokeColor=#666666;fontColor=#333333;" parent="1" vertex="1">
          <mxGeometry x="730" y="40" width="180" height="60" as="geometry" />
        </mxCell>
        <mxCell id="KkYqwo0GDRpc-AY5UE3U-16" value="" style="rounded=0;whiteSpace=wrap;html=1;fillColor=none;dashed=1;" parent="1" vertex="1">
          <mxGeometry x="990" y="70" width="200" height="490" as="geometry" />
        </mxCell>
        <mxCell id="KkYqwo0GDRpc-AY5UE3U-17" value="&lt;font style=&quot;font-size: 22px;&quot;&gt;Gold Layer&lt;/font&gt;" style="rounded=0;whiteSpace=wrap;html=1;fillColor=#e3c800;strokeColor=#B09500;fontColor=#000000;" parent="1" vertex="1">
          <mxGeometry x="1000" y="40" width="180" height="60" as="geometry" />
        </mxCell>
        <mxCell id="E1CYKKcFPxc725lF5P5_-7" style="edgeStyle=orthogonalEdgeStyle;rounded=0;orthogonalLoop=1;jettySize=auto;html=1;" parent="1" source="KkYqwo0GDRpc-AY5UE3U-18" target="E1CYKKcFPxc725lF5P5_-1" edge="1">
          <mxGeometry relative="1" as="geometry" />
        </mxCell>
        <mxCell id="KkYqwo0GDRpc-AY5UE3U-18" value="&lt;span style=&quot;color: rgb(51, 51, 51); font-size: 17px;&quot;&gt;crm_sales_details&lt;/span&gt;" style="rounded=1;whiteSpace=wrap;html=1;fillColor=#BD7000;strokeColor=#BD7000;fontColor=#000000;" parent="1" vertex="1">
          <mxGeometry x="450" y="150" width="180" height="30" as="geometry" />
        </mxCell>
        <mxCell id="E1CYKKcFPxc725lF5P5_-8" style="edgeStyle=orthogonalEdgeStyle;rounded=0;orthogonalLoop=1;jettySize=auto;html=1;" parent="1" source="KkYqwo0GDRpc-AY5UE3U-19" target="E1CYKKcFPxc725lF5P5_-2" edge="1">
          <mxGeometry relative="1" as="geometry" />
        </mxCell>
        <mxCell id="KkYqwo0GDRpc-AY5UE3U-19" value="&lt;span style=&quot;font-size: 17px;&quot;&gt;crm_cust_info&lt;/span&gt;" style="rounded=1;whiteSpace=wrap;html=1;fillColor=#BD7000;strokeColor=#BD7000;fontColor=#000000;" parent="1" vertex="1">
          <mxGeometry x="450" y="193" width="180" height="30" as="geometry" />
        </mxCell>
        <mxCell id="E1CYKKcFPxc725lF5P5_-9" style="edgeStyle=orthogonalEdgeStyle;rounded=0;orthogonalLoop=1;jettySize=auto;html=1;" parent="1" source="KkYqwo0GDRpc-AY5UE3U-20" target="E1CYKKcFPxc725lF5P5_-3" edge="1">
          <mxGeometry relative="1" as="geometry" />
        </mxCell>
        <mxCell id="KkYqwo0GDRpc-AY5UE3U-20" value="&lt;span style=&quot;font-size: 17px;&quot;&gt;crm_prod_info&lt;/span&gt;" style="rounded=1;whiteSpace=wrap;html=1;fillColor=#BD7000;strokeColor=#BD7000;fontColor=#000000;" parent="1" vertex="1">
          <mxGeometry x="450" y="236" width="180" height="30" as="geometry" />
        </mxCell>
        <mxCell id="E1CYKKcFPxc725lF5P5_-11" style="edgeStyle=orthogonalEdgeStyle;rounded=0;orthogonalLoop=1;jettySize=auto;html=1;entryX=0;entryY=0.5;entryDx=0;entryDy=0;" parent="1" source="KkYqwo0GDRpc-AY5UE3U-24" target="E1CYKKcFPxc725lF5P5_-4" edge="1">
          <mxGeometry relative="1" as="geometry" />
        </mxCell>
        <mxCell id="KkYqwo0GDRpc-AY5UE3U-24" value="&lt;font style=&quot;font-size: 17px;&quot;&gt;erp_cust_az12&lt;/font&gt;" style="rounded=1;whiteSpace=wrap;html=1;fillColor=#BD7000;strokeColor=#BD7000;fontColor=#000000;" parent="1" vertex="1">
          <mxGeometry x="450" y="324" width="180" height="30" as="geometry" />
        </mxCell>
        <mxCell id="E1CYKKcFPxc725lF5P5_-12" style="edgeStyle=orthogonalEdgeStyle;rounded=0;orthogonalLoop=1;jettySize=auto;html=1;entryX=0;entryY=0.5;entryDx=0;entryDy=0;" parent="1" source="KkYqwo0GDRpc-AY5UE3U-25" target="E1CYKKcFPxc725lF5P5_-5" edge="1">
          <mxGeometry relative="1" as="geometry" />
        </mxCell>
        <mxCell id="KkYqwo0GDRpc-AY5UE3U-25" value="&lt;font style=&quot;font-size: 17px;&quot;&gt;erp_loc_a101&lt;/font&gt;" style="rounded=1;whiteSpace=wrap;html=1;fillColor=#BD7000;strokeColor=#BD7000;fontColor=#000000;" parent="1" vertex="1">
          <mxGeometry x="450" y="365" width="180" height="30" as="geometry" />
        </mxCell>
        <mxCell id="E1CYKKcFPxc725lF5P5_-14" style="edgeStyle=orthogonalEdgeStyle;rounded=0;orthogonalLoop=1;jettySize=auto;html=1;" parent="1" source="KkYqwo0GDRpc-AY5UE3U-26" target="E1CYKKcFPxc725lF5P5_-6" edge="1">
          <mxGeometry relative="1" as="geometry" />
        </mxCell>
        <mxCell id="KkYqwo0GDRpc-AY5UE3U-26" value="&lt;font style=&quot;font-size: 17px;&quot;&gt;erp_px_cat_g1v2&lt;/font&gt;" style="rounded=1;whiteSpace=wrap;html=1;fillColor=#BD7000;strokeColor=#BD7000;fontColor=#000000;" parent="1" vertex="1">
          <mxGeometry x="450" y="408" width="180" height="30" as="geometry" />
        </mxCell>
        <mxCell id="sPU1cIeKGxzxUjHl2Xe_-5" style="edgeStyle=orthogonalEdgeStyle;rounded=0;orthogonalLoop=1;jettySize=auto;html=1;entryX=0;entryY=0.5;entryDx=0;entryDy=0;" edge="1" parent="1" source="E1CYKKcFPxc725lF5P5_-1" target="sPU1cIeKGxzxUjHl2Xe_-1">
          <mxGeometry relative="1" as="geometry" />
        </mxCell>
        <mxCell id="E1CYKKcFPxc725lF5P5_-1" value="&lt;span style=&quot;font-size: 17px;&quot;&gt;crm_sales_details&lt;/span&gt;" style="rounded=1;whiteSpace=wrap;html=1;fillColor=#f5f5f5;strokeColor=#666666;fontColor=#333333;" parent="1" vertex="1">
          <mxGeometry x="730" y="150" width="180" height="30" as="geometry" />
        </mxCell>
        <mxCell id="sPU1cIeKGxzxUjHl2Xe_-6" style="rounded=0;orthogonalLoop=1;jettySize=auto;html=1;entryX=0;entryY=0.5;entryDx=0;entryDy=0;exitX=1;exitY=0.5;exitDx=0;exitDy=0;" edge="1" parent="1" source="E1CYKKcFPxc725lF5P5_-2" target="sPU1cIeKGxzxUjHl2Xe_-2">
          <mxGeometry relative="1" as="geometry" />
        </mxCell>
        <mxCell id="E1CYKKcFPxc725lF5P5_-2" value="&lt;span style=&quot;color: rgb(0, 0, 0); font-size: 17px;&quot;&gt;crm_cust_info&lt;/span&gt;" style="rounded=1;whiteSpace=wrap;html=1;fillColor=#f5f5f5;strokeColor=#666666;fontColor=#333333;" parent="1" vertex="1">
          <mxGeometry x="730" y="193" width="180" height="30" as="geometry" />
        </mxCell>
        <mxCell id="sPU1cIeKGxzxUjHl2Xe_-7" style="rounded=0;orthogonalLoop=1;jettySize=auto;html=1;entryX=0;entryY=0.5;entryDx=0;entryDy=0;exitX=1;exitY=0.5;exitDx=0;exitDy=0;" edge="1" parent="1" source="E1CYKKcFPxc725lF5P5_-3" target="sPU1cIeKGxzxUjHl2Xe_-3">
          <mxGeometry relative="1" as="geometry" />
        </mxCell>
        <mxCell id="E1CYKKcFPxc725lF5P5_-3" value="&lt;span style=&quot;color: rgb(0, 0, 0); font-size: 17px;&quot;&gt;crm_prod_info&lt;/span&gt;" style="rounded=1;whiteSpace=wrap;html=1;fillColor=#f5f5f5;strokeColor=#666666;fontColor=#333333;" parent="1" vertex="1">
          <mxGeometry x="730" y="236" width="180" height="30" as="geometry" />
        </mxCell>
        <mxCell id="sPU1cIeKGxzxUjHl2Xe_-10" style="rounded=0;orthogonalLoop=1;jettySize=auto;html=1;entryX=0;entryY=0.5;entryDx=0;entryDy=0;exitX=1;exitY=0.5;exitDx=0;exitDy=0;" edge="1" parent="1" source="E1CYKKcFPxc725lF5P5_-4" target="sPU1cIeKGxzxUjHl2Xe_-2">
          <mxGeometry relative="1" as="geometry" />
        </mxCell>
        <mxCell id="E1CYKKcFPxc725lF5P5_-4" value="&lt;font style=&quot;font-size: 17px;&quot;&gt;erp_cust_az12&lt;/font&gt;" style="rounded=1;whiteSpace=wrap;html=1;fillColor=#f5f5f5;strokeColor=#666666;fontColor=#333333;" parent="1" vertex="1">
          <mxGeometry x="730" y="324" width="180" height="30" as="geometry" />
        </mxCell>
        <mxCell id="sPU1cIeKGxzxUjHl2Xe_-9" style="rounded=0;orthogonalLoop=1;jettySize=auto;html=1;entryX=0;entryY=0.5;entryDx=0;entryDy=0;exitX=1;exitY=0.5;exitDx=0;exitDy=0;" edge="1" parent="1" source="E1CYKKcFPxc725lF5P5_-5" target="sPU1cIeKGxzxUjHl2Xe_-2">
          <mxGeometry relative="1" as="geometry" />
        </mxCell>
        <mxCell id="E1CYKKcFPxc725lF5P5_-5" value="&lt;font style=&quot;font-size: 17px;&quot;&gt;erp_loc_a101&lt;/font&gt;" style="rounded=1;whiteSpace=wrap;html=1;fillColor=#f5f5f5;strokeColor=#666666;fontColor=#333333;" parent="1" vertex="1">
          <mxGeometry x="730" y="365" width="180" height="30" as="geometry" />
        </mxCell>
        <mxCell id="sPU1cIeKGxzxUjHl2Xe_-8" style="rounded=0;orthogonalLoop=1;jettySize=auto;html=1;entryX=0;entryY=0.5;entryDx=0;entryDy=0;exitX=1;exitY=0.5;exitDx=0;exitDy=0;" edge="1" parent="1" source="E1CYKKcFPxc725lF5P5_-6" target="sPU1cIeKGxzxUjHl2Xe_-3">
          <mxGeometry relative="1" as="geometry" />
        </mxCell>
        <mxCell id="E1CYKKcFPxc725lF5P5_-6" value="&lt;font style=&quot;font-size: 17px;&quot;&gt;erp_px_cat_g1v2&lt;/font&gt;" style="rounded=1;whiteSpace=wrap;html=1;fillColor=#f5f5f5;strokeColor=#666666;fontColor=#333333;" parent="1" vertex="1">
          <mxGeometry x="730" y="408" width="180" height="30" as="geometry" />
        </mxCell>
        <mxCell id="sPU1cIeKGxzxUjHl2Xe_-1" value="&lt;font style=&quot;font-size: 17px;&quot;&gt;fact_sales&lt;/font&gt;" style="rounded=1;whiteSpace=wrap;html=1;fillColor=#e3c800;strokeColor=#B09500;fontColor=#000000;" vertex="1" parent="1">
          <mxGeometry x="1000" y="150" width="180" height="30" as="geometry" />
        </mxCell>
        <mxCell id="sPU1cIeKGxzxUjHl2Xe_-2" value="&lt;font style=&quot;font-size: 17px;&quot;&gt;dim_customers&lt;/font&gt;" style="rounded=1;whiteSpace=wrap;html=1;fillColor=#e3c800;strokeColor=#B09500;fontColor=#000000;" vertex="1" parent="1">
          <mxGeometry x="1000" y="280" width="180" height="30" as="geometry" />
        </mxCell>
        <mxCell id="sPU1cIeKGxzxUjHl2Xe_-3" value="&lt;font style=&quot;font-size: 17px;&quot;&gt;dim_products&lt;/font&gt;" style="rounded=1;whiteSpace=wrap;html=1;fillColor=#e3c800;strokeColor=#B09500;fontColor=#000000;" vertex="1" parent="1">
          <mxGeometry x="1000" y="380" width="180" height="30" as="geometry" />
        </mxCell>
      </root>
    </mxGraphModel>
  </diagram>
</mxfile>
